<?xml version="1.0" standalone="no"?>
<!DOCTYPE svg PUBLIC "-//W3C//DTD SVG 20010904//EN"
 "http://www.w3.org/TR/2001/REC-SVG-20010904/DTD/svg10.dtd">
<svg version="1.0" xmlns="http://www.w3.org/2000/svg"
 width="300.000000pt" height="300.000000pt" viewBox="0 0 300.000000 300.000000"
 preserveAspectRatio="xMidYMid meet">
<metadata>
Created by potrace 1.14, written by Peter Selinger 2001-2017
</metadata>
<g transform="translate(0.000000,300.000000) scale(0.100000,-0.100000)"
fill="#000000" stroke="none">
<path d="M60 2659 c0 -48 4 -69 13 -70 6 0 63 -1 124 -1 l112 1 1 -656 c0
-360 2 -658 4 -662 2 -3 6 -29 10 -58 15 -132 77 -254 181 -359 133 -134 305
-204 534 -218 56 -4 68 -8 100 -38 100 -95 168 -147 267 -203 127 -73 297
-132 428 -149 27 -4 53 -9 57 -12 4 -2 11 1 15 8 8 13 8 113 0 126 -3 5 -36
17 -73 27 -270 71 -530 289 -651 545 -68 145 -95 272 -94 440 1 211 57 380
181 546 87 118 188 205 346 299 14 9 18 27 19 99 0 48 -1 89 -3 91 -2 2 -31
-6 -65 -19 -333 -126 -601 -400 -696 -712 -56 -187 -60 -407 -9 -601 29 -112
101 -270 133 -296 26 -20 -81 6 -142 35 -127 60 -211 173 -249 334 -14 60 -16
168 -18 812 -1 408 -6 746 -9 750 -4 4 -122 8 -262 8 l-254 1 0 -68z"/>
<path d="M1439 2721 c-3 -20 -5 -118 -2 -126 3 -11 458 -14 469 -3 5 6 7 57 5
114 -1 20 -6 20 -236 20 -129 1 -235 -2 -236 -5z"/>
<path d="M1970 2482 c-25 -2 -48 -7 -52 -10 -4 -4 -8 -284 -8 -622 -1 -643 -3
-681 -46 -791 -23 -58 -84 -151 -97 -146 -17 5 -87 130 -102 182 -26 91 -28
128 -30 485 -2 195 -3 361 -4 369 -2 26 -116 -112 -163 -199 -28 -51 -68 -152
-74 -190 -3 -14 -7 -36 -10 -50 -3 -14 -7 -63 -8 -110 -15 -437 282 -817 699
-895 86 -17 263 -17 335 -1 14 3 39 8 55 12 54 10 218 78 243 99 5 4 -21 55
-28 55 -4 0 -24 -7 -44 -15 -135 -57 -352 -65 -501 -19 -62 19 -159 69 -202
103 l-33 26 70 67 c82 80 119 132 153 213 59 141 61 163 61 777 1 521 1 528
21 529 27 2 23 2 80 -5 213 -26 379 -164 417 -346 l12 -58 54 -12 c29 -6 55
-10 57 -8 4 4 40 184 48 243 3 17 13 76 22 132 10 57 16 105 13 108 -3 3 -18
8 -34 11 -16 3 -44 9 -62 14 -30 8 -34 6 -43 -16 -5 -14 -9 -38 -9 -54 l0 -28
-91 39 c-196 85 -463 127 -699 111z"/>
</g>
</svg>
